<svg width="81" height="69" viewBox="0 0 81 69" fill="none" xmlns="http://www.w3.org/2000/svg">
<path d="M62.8712 21.4334V17.1467C62.8712 7.6919 52.6152 0 40.0089 0C27.4026 0 17.1467 7.6919 17.1467 17.1467V21.4334H0V57.8701C0 63.7888 6.39732 68.5868 14.2889 68.5868H65.729C73.6206 68.5868 80.0179 63.7888 80.0179 57.8701V21.4334H62.8712ZM28.5778 17.1467C28.5778 12.4193 33.7058 8.57335 40.0089 8.57335C46.3121 8.57335 51.4401 12.4193 51.4401 17.1467V21.4334H28.5778V17.1467ZM57.1556 33.2217C54.7881 33.2217 52.869 31.7823 52.869 30.0067C52.869 28.2311 54.7881 26.7917 57.1556 26.7917C59.5231 26.7917 61.4423 28.2311 61.4423 30.0067C61.4423 31.7823 59.5231 33.2217 57.1556 33.2217ZM22.8623 33.2217C20.4948 33.2217 18.5756 31.7823 18.5756 30.0067C18.5756 28.2311 20.4948 26.7917 22.8623 26.7917C25.2297 26.7917 27.1489 28.2311 27.1489 30.0067C27.1489 31.7823 25.2297 33.2217 22.8623 33.2217Z" fill="#F59500"/>
</svg>
