<svg width="17" height="16" viewBox="0 0 17 16" fill="none" xmlns="http://www.w3.org/2000/svg">
<path d="M8.5 0.25C4.21875 0.25 0.75 3.75 0.75 8C0.75 12.2812 4.21875 15.75 8.5 15.75C12.75 15.75 16.25 12.2812 16.25 8C16.25 3.75 12.75 0.25 8.5 0.25ZM8.5 14.25C5.03125 14.25 2.25 11.4688 2.25 8C2.25 4.5625 5.03125 1.75 8.5 1.75C11.9375 1.75 14.75 4.5625 14.75 8C14.75 11.4688 11.9375 14.25 8.5 14.25ZM11.8438 11.0938C11.9062 11.0312 11.9375 10.9375 11.9375 10.8438C11.9375 10.75 11.9062 10.6875 11.875 10.625L11.25 9.78125C11.125 9.59375 10.875 9.5625 10.6875 9.71875C10.4062 9.96875 9.65625 10.5625 8.65625 10.5625C7.03125 10.5625 6.1875 9.25 6.1875 7.96875C6.1875 6.5625 7.125 5.4375 8.625 5.4375C9.5625 5.4375 10.2812 5.9375 10.5625 6.15625C10.7188 6.28125 11 6.25 11.0938 6.0625L11.6875 5.1875C11.7188 5.125 11.75 5.0625 11.75 4.96875C11.75 4.875 11.6875 4.78125 11.625 4.71875C11.3438 4.4375 10.3125 3.625 8.5625 3.625C6.09375 3.625 4.1875 5.5 4.1875 7.96875C4.1875 10.4688 6 12.4062 8.59375 12.4062C10.4062 12.4062 11.5312 11.4062 11.8438 11.0938Z" fill="#F5F5F5"/>
</svg>
