<svg width="161" height="38" viewBox="0 0 161 38" fill="none" xmlns="http://www.w3.org/2000/svg">
<rect width="161" height="38" rx="8" fill="#F17228" fill-opacity="0.1"/>
<path d="M42 17C44.4609 17.0352 46.4648 19.0391 46.5 21.4648C46.5 23.9961 44.4609 26.0352 41.9297 26C39.5039 26 37.5 23.9961 37.5 21.5352C37.4648 20.1641 38.0977 18.9336 39.0469 18.0898L38.625 17.3516C37.2539 18.4766 36.5859 20.0938 36.6562 21.7461C36.6562 22.2383 36.2695 22.625 35.8125 22.625H32.8594C32.332 24.5938 30.5742 26 28.5 26C25.9688 26 23.9297 23.9609 24 21.3945C24.0352 19.0391 25.9336 17.1055 28.3242 17.0352C28.8164 17 29.3086 17.0703 29.7656 17.2109L30.1523 16.4727C29.8359 15.9805 29.3438 15.5938 28.5 15.5938H26.5312C26.0391 15.5938 25.6875 15.2422 25.6875 14.7852C25.6523 14.293 26.0742 13.9062 26.5312 13.9062H28.5C30.4336 13.9062 31.3828 14.5039 31.9805 15.3125H37.3945L36.7266 14.1875H34.4062C34.0898 14.1875 33.8438 13.9414 33.8438 13.625V13.0625C33.8438 12.7812 34.0898 12.5 34.4062 12.5H37.2188C37.5 12.5 37.7812 12.6758 37.9219 12.9219L38.7305 14.2578L40.0312 12.7812C40.207 12.6055 40.418 12.5 40.6641 12.5H42.2812C42.7383 12.5 43.125 12.8867 43.125 13.3438V14.4688C43.125 14.9609 42.7383 15.3125 42.2812 15.3125H39.3633L40.5234 17.2461C40.9805 17.1055 41.5078 17 42 17ZM28.5 24.3125C29.625 24.3125 30.6094 23.6445 31.0664 22.625H28.2188C27.5508 22.625 27.1641 21.957 27.4805 21.3945L28.9219 18.7227C28.7812 18.7227 28.6406 18.6875 28.5 18.6875C26.918 18.6875 25.6875 19.9531 25.6875 21.5C25.6875 23.082 26.918 24.3125 28.5 24.3125ZM44.7773 21.6758C44.8828 20.0586 43.582 18.6875 42 18.7227C41.7891 18.7227 41.6133 18.7227 41.4375 18.7578L43.125 21.6055C43.3008 21.8867 43.1953 22.2383 42.9492 22.3789L42.457 22.6602C42.1758 22.8359 41.8594 22.7305 41.6836 22.4844L39.9609 19.5664C39.4688 20.0938 39.1875 20.7617 39.1875 21.5C39.1875 23.1172 40.5234 24.418 42.1406 24.3125C43.5469 24.2422 44.707 23.082 44.7773 21.6758Z" fill="#F17228"/>
<path d="M63.57 25.216C62.502 25.216 61.53 24.988 60.654 24.532C59.79 24.076 59.1 23.404 58.584 22.516C58.08 21.616 57.828 20.512 57.828 19.204C57.828 17.908 58.086 16.804 58.602 15.892C59.13 14.968 59.826 14.266 60.69 13.786C61.554 13.294 62.508 13.048 63.552 13.048C64.404 13.048 65.136 13.204 65.748 13.516C66.36 13.828 66.858 14.182 67.242 14.578L65.856 16.27C65.556 16.006 65.238 15.784 64.902 15.604C64.566 15.424 64.146 15.334 63.642 15.334C62.73 15.334 61.986 15.67 61.41 16.342C60.834 17.014 60.546 17.938 60.546 19.114C60.546 20.314 60.822 21.25 61.374 21.922C61.926 22.594 62.748 22.93 63.84 22.93C64.08 22.93 64.314 22.9 64.542 22.84C64.77 22.78 64.956 22.69 65.1 22.57V20.554H63.156V18.394H67.44V23.794C67.032 24.19 66.486 24.526 65.802 24.802C65.13 25.078 64.386 25.216 63.57 25.216ZM69.6485 25V16.072H72.2945V25H69.6485ZM70.9625 14.758C70.5185 14.758 70.1585 14.632 69.8825 14.38C69.6065 14.128 69.4685 13.792 69.4685 13.372C69.4685 12.952 69.6065 12.616 69.8825 12.364C70.1585 12.112 70.5185 11.986 70.9625 11.986C71.4065 11.986 71.7665 12.112 72.0425 12.364C72.3185 12.616 72.4565 12.952 72.4565 13.372C72.4565 13.792 72.3185 14.128 72.0425 14.38C71.7665 14.632 71.4065 14.758 70.9625 14.758ZM76.8731 25.216C76.0571 25.216 75.4091 24.958 74.9291 24.442C74.4491 23.914 74.2091 23.272 74.2091 22.516C74.2091 21.58 74.6051 20.848 75.3971 20.32C76.1891 19.792 77.4671 19.438 79.2311 19.258C79.2071 18.862 79.0871 18.55 78.8711 18.322C78.6671 18.082 78.3191 17.962 77.8271 17.962C77.4551 17.962 77.0771 18.034 76.6931 18.178C76.3091 18.322 75.9011 18.52 75.4691 18.772L74.5151 17.026C75.0791 16.678 75.6791 16.396 76.3151 16.18C76.9631 15.964 77.6351 15.856 78.3311 15.856C79.4711 15.856 80.3471 16.186 80.9591 16.846C81.5711 17.506 81.8771 18.52 81.8771 19.888V25H79.7171L79.5371 24.082H79.4651C79.0931 24.418 78.6911 24.694 78.2591 24.91C77.8391 25.114 77.3771 25.216 76.8731 25.216ZM77.7731 23.164C78.0731 23.164 78.3311 23.098 78.5471 22.966C78.7751 22.822 79.0031 22.636 79.2311 22.408V20.842C78.2951 20.962 77.6471 21.154 77.2871 21.418C76.9271 21.67 76.7471 21.97 76.7471 22.318C76.7471 22.606 76.8371 22.822 77.0171 22.966C77.2091 23.098 77.4611 23.164 77.7731 23.164ZM87.9493 25.216C87.1933 25.216 86.4793 25.036 85.8073 24.676C85.1473 24.304 84.6133 23.77 84.2053 23.074C83.7973 22.366 83.5933 21.52 83.5933 20.536C83.5933 19.54 83.7973 18.694 84.2053 17.998C84.6133 17.302 85.1473 16.774 85.8073 16.414C86.4793 16.042 87.1933 15.856 87.9493 15.856C88.7053 15.856 89.4133 16.042 90.0733 16.414C90.7333 16.774 91.2673 17.302 91.6753 17.998C92.0833 18.694 92.2873 19.54 92.2873 20.536C92.2873 21.52 92.0833 22.366 91.6753 23.074C91.2673 23.77 90.7333 24.304 90.0733 24.676C89.4133 25.036 88.7053 25.216 87.9493 25.216ZM87.9493 23.074C88.4893 23.074 88.8973 22.846 89.1733 22.39C89.4493 21.922 89.5873 21.304 89.5873 20.536C89.5873 19.756 89.4493 19.138 89.1733 18.682C88.8973 18.226 88.4893 17.998 87.9493 17.998C87.3973 17.998 86.9833 18.226 86.7073 18.682C86.4433 19.138 86.3113 19.756 86.3113 20.536C86.3113 21.304 86.4433 21.922 86.7073 22.39C86.9833 22.846 87.3973 23.074 87.9493 23.074ZM97.7032 25V12.382H100.349V15.478L100.223 17.08C100.559 16.78 100.949 16.504 101.393 16.252C101.849 15.988 102.377 15.856 102.977 15.856C103.949 15.856 104.651 16.18 105.083 16.828C105.527 17.464 105.749 18.34 105.749 19.456V25H103.103V19.798C103.103 19.15 103.013 18.706 102.833 18.466C102.665 18.226 102.389 18.106 102.005 18.106C101.669 18.106 101.381 18.184 101.141 18.34C100.901 18.484 100.637 18.694 100.349 18.97V25H97.7032ZM110.236 25.216C109.42 25.216 108.772 24.958 108.292 24.442C107.812 23.914 107.572 23.272 107.572 22.516C107.572 21.58 107.968 20.848 108.76 20.32C109.552 19.792 110.83 19.438 112.594 19.258C112.57 18.862 112.45 18.55 112.234 18.322C112.03 18.082 111.682 17.962 111.19 17.962C110.818 17.962 110.44 18.034 110.056 18.178C109.672 18.322 109.264 18.52 108.832 18.772L107.878 17.026C108.442 16.678 109.042 16.396 109.678 16.18C110.326 15.964 110.998 15.856 111.694 15.856C112.834 15.856 113.71 16.186 114.322 16.846C114.934 17.506 115.24 18.52 115.24 19.888V25H113.08L112.9 24.082H112.828C112.456 24.418 112.054 24.694 111.622 24.91C111.202 25.114 110.74 25.216 110.236 25.216ZM111.136 23.164C111.436 23.164 111.694 23.098 111.91 22.966C112.138 22.822 112.366 22.636 112.594 22.408V20.842C111.658 20.962 111.01 21.154 110.65 21.418C110.29 21.67 110.11 21.97 110.11 22.318C110.11 22.606 110.2 22.822 110.38 22.966C110.572 23.098 110.824 23.164 111.136 23.164ZM111.604 14.704L108.346 11.878L110.128 10.132L112.9 13.408L111.604 14.704ZM117.479 25V16.072H119.639L119.819 17.206H119.891C120.275 16.846 120.695 16.534 121.151 16.27C121.619 15.994 122.153 15.856 122.753 15.856C123.725 15.856 124.427 16.18 124.859 16.828C125.303 17.464 125.525 18.34 125.525 19.456V25H122.879V19.798C122.879 19.15 122.789 18.706 122.609 18.466C122.441 18.226 122.165 18.106 121.781 18.106C121.445 18.106 121.157 18.184 120.917 18.34C120.677 18.484 120.413 18.694 120.125 18.97V25H117.479ZM130.965 28.798C130.269 28.798 129.639 28.72 129.075 28.564C128.511 28.408 128.061 28.162 127.725 27.826C127.389 27.49 127.221 27.058 127.221 26.53C127.221 25.81 127.647 25.21 128.499 24.73V24.658C128.271 24.502 128.073 24.304 127.905 24.064C127.749 23.824 127.671 23.518 127.671 23.146C127.671 22.822 127.767 22.51 127.959 22.21C128.151 21.91 128.391 21.664 128.679 21.472V21.4C128.367 21.184 128.085 20.872 127.833 20.464C127.593 20.056 127.473 19.594 127.473 19.078C127.473 18.358 127.647 17.764 127.995 17.296C128.343 16.816 128.799 16.456 129.363 16.216C129.927 15.976 130.527 15.856 131.163 15.856C131.691 15.856 132.153 15.928 132.549 16.072H135.807V17.998H134.385C134.469 18.13 134.535 18.298 134.583 18.502C134.643 18.706 134.673 18.928 134.673 19.168C134.673 19.852 134.517 20.416 134.205 20.86C133.893 21.304 133.473 21.634 132.945 21.85C132.417 22.066 131.823 22.174 131.163 22.174C130.815 22.174 130.455 22.114 130.083 21.994C129.867 22.174 129.759 22.396 129.759 22.66C129.759 22.888 129.861 23.056 130.065 23.164C130.269 23.272 130.617 23.326 131.109 23.326H132.549C133.653 23.326 134.493 23.506 135.069 23.866C135.657 24.214 135.951 24.79 135.951 25.594C135.951 26.206 135.747 26.752 135.339 27.232C134.931 27.724 134.355 28.108 133.611 28.384C132.867 28.66 131.985 28.798 130.965 28.798ZM131.163 20.572C131.511 20.572 131.799 20.446 132.027 20.194C132.267 19.942 132.387 19.57 132.387 19.078C132.387 18.61 132.267 18.256 132.027 18.016C131.799 17.764 131.511 17.638 131.163 17.638C130.815 17.638 130.521 17.758 130.281 17.998C130.053 18.238 129.939 18.598 129.939 19.078C129.939 19.57 130.053 19.942 130.281 20.194C130.521 20.446 130.815 20.572 131.163 20.572ZM131.379 27.142C131.979 27.142 132.471 27.034 132.855 26.818C133.239 26.602 133.431 26.344 133.431 26.044C133.431 25.768 133.311 25.582 133.071 25.486C132.843 25.39 132.507 25.342 132.063 25.342H131.145C130.845 25.342 130.593 25.33 130.389 25.306C130.197 25.294 130.029 25.27 129.885 25.234C129.561 25.522 129.399 25.816 129.399 26.116C129.399 26.452 129.579 26.704 129.939 26.872C130.311 27.052 130.791 27.142 131.379 27.142Z" fill="#F17228"/>
</svg>
