<svg width="55" height="55" viewBox="0 0 55 55" fill="none" xmlns="http://www.w3.org/2000/svg">
<path d="M27.5 0C12.3085 0 0 12.3085 0 27.5C0 42.6915 12.3085 55 27.5 55C42.6915 55 55 42.6915 55 27.5C55 12.3085 42.6915 0 27.5 0ZM27.5 10.6452C32.8891 10.6452 37.2581 15.0141 37.2581 20.4032C37.2581 25.7923 32.8891 30.1613 27.5 30.1613C22.1109 30.1613 17.7419 25.7923 17.7419 20.4032C17.7419 15.0141 22.1109 10.6452 27.5 10.6452ZM27.5 48.7903C20.9909 48.7903 15.1583 45.8407 11.255 41.2278C13.3397 37.3024 17.4204 34.5968 22.1774 34.5968C22.4435 34.5968 22.7097 34.6411 22.9647 34.7188C24.4063 35.1845 25.9143 35.4839 27.5 35.4839C29.0857 35.4839 30.6048 35.1845 32.0353 34.7188C32.2903 34.6411 32.5565 34.5968 32.8226 34.5968C37.5796 34.5968 41.6603 37.3024 43.745 41.2278C39.8417 45.8407 34.0091 48.7903 27.5 48.7903Z" fill="url(#paint0_linear_572_293)"/>
<defs>
<linearGradient id="paint0_linear_572_293" x1="-4.43549" y1="1.94678e-06" x2="142.379" y2="149.032" gradientUnits="userSpaceOnUse">
<stop stop-color="#FFAF01"/>
</linearGradient>
</defs>
</svg>
